<svg width="83" height="80" fill="none" xmlns="http://www.w3.org/2000/svg"><g filter="url(#filter0_d)" fill-rule="evenodd" clip-rule="evenodd" fill="#81B3D2"><path d="M49.656 65.033h-16V41.21h16v23.823zm-2.938-20.899H36.593V62.11h10.125V44.134z"/><path d="M76.771 39.253l2.076-2.068-9.908-9.865V0H55.127v13.567L41.5 0 4.152 37.185l2.077 2.068 7.832-7.795v37.618h-3.937V72H74v-2.924H68.94V31.458l7.831 7.795zM66.002 69.076H17V28.534L41.5 4.149l24.502 24.385v40.542zm-7.938-52.584l7.938 7.902V2.924h-7.938v13.568z"/><path d="M41.656 34.793c-4.28 0-7.75-3.452-7.75-7.713 0-4.26 3.469-7.713 7.75-7.713 4.279 0 7.75 3.454 7.75 7.713 0 4.26-3.471 7.713-7.75 7.713zm4.969-7.713c0-2.731-2.225-4.945-4.969-4.945-2.745 0-4.97 2.214-4.97 4.945 0 2.732 2.224 4.948 4.97 4.948 2.744 0 4.969-2.216 4.969-4.948zM21.061 41.21h3v3.919h-3v-3.92zm8.938 0h-3v3.919h3v-3.92zm-8.938 5.972h3V51.1h-3v-3.92zm8.938 0h-3V51.1h3v-3.92zm22.999-5.972h3v3.919h-3v-3.92zm8.938 0h-3v3.919h3v-3.92zm-8.938 5.972h3V51.1h-3v-3.92zm8.938 0h-3V51.1h3v-3.92z"/></g><defs><filter id="filter0_d" x="0" y="0" width="83" height="80" filterUnits="userSpaceOnUse" color-interpolation-filters="sRGB"><feFlood flood-opacity="0" result="BackgroundImageFix"/><feColorMatrix in="SourceAlpha" values="0 0 0 0 0 0 0 0 0 0 0 0 0 0 0 0 0 0 127 0"/><feOffset dy="4"/><feGaussianBlur stdDeviation="2"/><feColorMatrix values="0 0 0 0 0 0 0 0 0 0 0 0 0 0 0 0 0 0 0.25 0"/><feBlend in2="BackgroundImageFix" result="effect1_dropShadow"/><feBlend in="SourceGraphic" in2="effect1_dropShadow" result="shape"/></filter></defs></svg>